<svg viewBox="0 0 200 200" xmlns="http://www.w3.org/2000/svg"><defs><linearGradient id="alienGrad" x1="0%" y1="0%" x2="100%" y2="100%"><stop offset="0%" style="stop-color:#10b981;stop-opacity:1" /><stop offset="100%" style="stop-color:#047857;stop-opacity:1" /></linearGradient></defs><circle cx="100" cy="100" r="100" fill="url(#alienGrad)"/><ellipse cx="100" cy="75" rx="25" ry="30" fill="#6ee7b7"/><ellipse cx="85" cy="65" rx="8" ry="12" fill="#000"/><ellipse cx="115" cy="65" rx="8" ry="12" fill="#000"/><circle cx="86" cy="62" r="2" fill="#00ff00"/><circle cx="116" cy="62" r="2" fill="#00ff00"/><path d="M 95 85 L 105 85" stroke="#047857" stroke-width="1.5"/><path d="M 85 50 Q 80 35 85 25" stroke="#047857" stroke-width="2" fill="none"/><path d="M 115 50 Q 120 35 115 25" stroke="#047857" stroke-width="2" fill="none"/><circle cx="85" cy="25" r="2" fill="#00ff00"/><circle cx="115" cy="25" r="2" fill="#00ff00"/><ellipse cx="100" cy="120" rx="28" ry="35" fill="#6ee7b7"/><circle cx="95" cy="115" r="3" fill="#047857"/><circle cx="105" cy="115" r="3" fill="#047857"/><circle cx="100" cy="130" r="3" fill="#047857"/><path d="M 75 110 L 50 130" stroke="#6ee7b7" stroke-width="6"/><path d="M 125 110 L 150 130" stroke="#6ee7b7" stroke-width="6"/><circle cx="50" cy="130" r="3" fill="#047857"/><circle cx="150" cy="130" r="3" fill="#047857"/></svg>