<svg viewBox="0 0 200 200" xmlns="http://www.w3.org/2000/svg"><defs><linearGradient id="androidGrad" x1="0%" y1="0%" x2="100%" y2="100%"><stop offset="0%" style="stop-color:#8b5cf6;stop-opacity:1" /><stop offset="100%" style="stop-color:#6d28d9;stop-opacity:1" /></linearGradient></defs><circle cx="100" cy="100" r="100" fill="url(#androidGrad)"/><rect x="70" y="50" width="60" height="50" fill="#a78bfa" rx="8"/><circle cx="65" cy="70" r="6" fill="#8b5cf6"/><circle cx="135" cy="70" r="6" fill="#8b5cf6"/><circle cx="85" cy="68" r="5" fill="#000"/><circle cx="115" cy="68" r="5" fill="#000"/><circle cx="86" cy="66" r="2" fill="#00ff00"/><circle cx="116" cy="66" r="2" fill="#00ff00"/><path d="M 90 80 L 110 80" stroke="#6d28d9" stroke-width="2"/><rect x="65" y="105" width="70" height="65" fill="#a78bfa" rx="8"/><circle cx="100" cy="140" r="15" fill="#6d28d9"/><circle cx="100" cy="140" r="12" fill="#c084fc" opacity="0.6"/><path d="M 100 125 L 100 155" stroke="#c084fc" stroke-width="2"/><path d="M 85 140 L 115 140" stroke="#c084fc" stroke-width="2"/><rect x="40" y="120" width="25" height="12" fill="#a78bfa" rx="6"/><rect x="135" y="120" width="25" height="12" fill="#a78bfa" rx="6"/><circle cx="40" cy="126" r="4" fill="#6d28d9"/><circle cx="160" cy="126" r="4" fill="#6d28d9"/><rect x="85" y="170" width="10" height="20" fill="#6d28d9" rx="3"/><rect x="105" y="170" width="10" height="20" fill="#6d28d9" rx="3"/></svg>