<svg viewBox="0 0 200 200" xmlns="http://www.w3.org/2000/svg"><defs><linearGradient id="archerGrad" x1="0%" y1="0%" x2="100%" y2="100%"><stop offset="0%" style="stop-color:#fbbf24;stop-opacity:1" /><stop offset="100%" style="stop-color:#d97706;stop-opacity:1" /></linearGradient></defs><circle cx="100" cy="100" r="100" fill="url(#archerGrad)"/><circle cx="100" cy="70" r="20" fill="#fdbf60"/><path d="M 82 60 Q 100 45 118 60 Q 105 65 100 67 Q 95 65 82 60" fill="#92400e"/><circle cx="92" cy="68" r="2.5" fill="#1f2937"/><circle cx="108" cy="68" r="2.5" fill="#1f2937"/><path d="M 95 78 Q 100 80 105 78" stroke="#1f2937" stroke-width="1" fill="none"/><path d="M 80 90 L 120 90 L 115 150 L 85 150 Z" fill="#92400e"/><path d="M 80 95 L 60 120" stroke="#fdbf60" stroke-width="8"/><path d="M 120 95 L 140 120" stroke="#fdbf60" stroke-width="8"/><path d="M 60 100 Q 50 120 60 140" stroke="#654321" stroke-width="4" fill="none"/><path d="M 62 105 Q 45 120 62 135" stroke="#fbbf24" stroke-width="2" fill="none"/><path d="M 140 120 L 90 110" stroke="#dc2626" stroke-width="2"/><path d="M 90 110 L 85 108 L 87 112 Z" fill="#dc2626"/><path d="M 90 150 L 88 180" stroke="#654321" stroke-width="5"/><path d="M 110 150 L 112 180" stroke="#654321" stroke-width="5"/></svg>