<svg viewBox="0 0 200 200" xmlns="http://www.w3.org/2000/svg"><defs><linearGradient id="astronautGrad" x1="0%" y1="0%" x2="100%" y2="100%"><stop offset="0%" style="stop-color:#e0e7ff;stop-opacity:1" /><stop offset="100%" style="stop-color:#a5b4fc;stop-opacity:1" /></linearGradient></defs><circle cx="100" cy="100" r="100" fill="url(#astronautGrad)"/><circle cx="100" cy="70" r="28" fill="#e0e7ff" opacity="0.8" stroke="#a5b4fc" stroke-width="2"/><ellipse cx="90" cy="55" rx="8" ry="10" fill="#fff" opacity="0.4"/><circle cx="100" cy="70" r="20" fill="#fdbf60"/><circle cx="92" cy="65" r="3" fill="#1f2937"/><circle cx="108" cy="65" r="3" fill="#1f2937"/><path d="M 95 75 Q 100 78 105 75" stroke="#1f2937" stroke-width="1.5" fill="none"/><path d="M 75 100 L 125 100 L 120 170 L 80 170 Z" fill="#e0e7ff"/><rect x="85" y="110" width="30" height="35" fill="#a5b4fc" rx="3"/><rect x="88" y="115" width="8" height="8" fill="#0ea5e9"/><rect x="98" y="115" width="8" height="8" fill="#0ea5e9"/><rect x="108" y="115" width="8" height="8" fill="#0ea5e9"/><rect x="88" y="128" width="8" height="8" fill="#dc2626"/><rect x="98" y="128" width="8" height="8" fill="#dc2626"/><rect x="108" y="128" width="8" height="8" fill="#dc2626"/><path d="M 75 105 L 50 130" stroke="#e0e7ff" stroke-width="8"/><path d="M 125 105 L 150 130" stroke="#e0e7ff" stroke-width="8"/><circle cx="50" cy="130" r="5" fill="#a5b4fc"/><circle cx="150" cy="130" r="5" fill="#a5b4fc"/></svg>