<svg viewBox="0 0 200 200" xmlns="http://www.w3.org/2000/svg"><defs><linearGradient id="bardGrad" x1="0%" y1="0%" x2="100%" y2="100%"><stop offset="0%" style="stop-color:#ec4899;stop-opacity:1" /><stop offset="100%" style="stop-color:#be185d;stop-opacity:1" /></linearGradient></defs><circle cx="100" cy="100" r="100" fill="url(#bardGrad)"/><path d="M 75 55 L 125 55 L 120 75 L 80 75 Z" fill="#92400e"/><path d="M 100 45 L 105 55 L 95 55 Z" fill="#92400e"/><path d="M 105 50 Q 115 40 120 45" stroke="#fbbf24" stroke-width="2" fill="none"/><circle cx="100" cy="90" r="18" fill="#fdbf60"/><circle cx="92" cy="85" r="3" fill="#1f2937"/><circle cx="108" cy="85" r="3" fill="#1f2937"/><path d="M 92 95 Q 100 100 108 95" stroke="#1f2937" stroke-width="2" fill="none"/><path d="M 75 105 L 125 105 L 120 160 L 80 160 Z" fill="#ec4899"/><circle cx="55" cy="130" r="12" fill="#92400e"/><path d="M 55 120 L 55 140" stroke="#654321" stroke-width="2"/><path d="M 50 125 L 60 125 M 50 130 L 60 130 M 50 135 L 60 135" stroke="#fbbf24" stroke-width="1"/><path d="M 55 120 L 50 80" stroke="#654321" stroke-width="2"/><path d="M 140 80 Q 145 75 150 80" stroke="#fbbf24" stroke-width="2" fill="none"/><circle cx="150" cy="85" r="2" fill="#fbbf24"/></svg>