<svg viewBox="0 0 200 200" xmlns="http://www.w3.org/2000/svg"><defs><linearGradient id="cyborgGrad" x1="0%" y1="0%" x2="100%" y2="100%"><stop offset="0%" style="stop-color:#0ea5e9;stop-opacity:1" /><stop offset="100%" style="stop-color:#0369a1;stop-opacity:1" /></linearGradient></defs><circle cx="100" cy="100" r="100" fill="url(#cyborgGrad)"/><circle cx="100" cy="75" r="22" fill="#e0f2fe"/><circle cx="90" cy="70" r="6" fill="#000"/><circle cx="90" cy="70" r="4" fill="#00ff00"/><circle cx="92" cy="68" r="1.5" fill="#fff"/><circle cx="110" cy="70" r="4" fill="#1f2937"/><path d="M 92 82 L 108 82" stroke="#0369a1" stroke-width="2"/><rect x="85" y="82" width="30" height="6" fill="#64748b" rx="2"/><rect x="75" y="100" width="50" height="60" fill="#1e293b" rx="5"/><rect x="80" y="110" width="40" height="35" fill="#0ea5e9" rx="3"/><path d="M 85 120 L 115 120 M 85 130 L 115 130 M 85 140 L 115 140" stroke="#00ff00" stroke-width="1"/><circle cx="88" cy="125" r="2" fill="#00ff00"/><circle cx="100" cy="125" r="2" fill="#00ff00"/><circle cx="112" cy="125" r="2" fill="#00ff00"/><rect x="55" y="110" width="20" height="8" fill="#64748b" rx="4"/><rect x="125" y="110" width="20" height="8" fill="#64748b" rx="4"/><rect x="85" y="165" width="8" height="25" fill="#1e293b"/><rect x="107" y="165" width="8" height="25" fill="#1e293b"/></svg>