<svg viewBox="0 0 200 200" xmlns="http://www.w3.org/2000/svg"><defs><linearGradient id="dragonGrad" x1="0%" y1="0%" x2="100%" y2="100%"><stop offset="0%" style="stop-color:#dc2626;stop-opacity:1" /><stop offset="100%" style="stop-color:#991b1b;stop-opacity:1" /></linearGradient></defs><circle cx="100" cy="100" r="100" fill="url(#dragonGrad)"/><ellipse cx="100" cy="70" rx="30" ry="35" fill="#ef4444"/><path d="M 80 45 L 70 20 L 75 45 Z" fill="#92400e"/><path d="M 120 45 L 130 20 L 125 45 Z" fill="#92400e"/><circle cx="90" cy="65" r="5" fill="#fbbf24"/><circle cx="110" cy="65" r="5" fill="#fbbf24"/><circle cx="92" cy="63" r="2" fill="#000"/><circle cx="112" cy="63" r="2" fill="#000"/><path d="M 85 80 Q 100 90 115 80" stroke="#fbbf24" stroke-width="2" fill="none"/><circle cx="85" cy="100" r="8" fill="#dc2626"/><circle cx="100" cy="105" r="8" fill="#dc2626"/><circle cx="115" cy="100" r="8" fill="#dc2626"/><ellipse cx="100" cy="130" rx="35" ry="40" fill="#ef4444"/><path d="M 70 110 Q 50 100 45 130 Q 50 140 70 125 Z" fill="#b91c1c"/><path d="M 130 110 Q 150 100 155 130 Q 150 140 130 125 Z" fill="#b91c1c"/><path d="M 100 165 Q 110 180 100 195 Q 90 180 100 165" fill="#991b1b"/></svg>