<svg viewBox="0 0 200 200" xmlns="http://www.w3.org/2000/svg"><defs><linearGradient id="elfGrad" x1="0%" y1="0%" x2="100%" y2="100%"><stop offset="0%" style="stop-color:#86efac;stop-opacity:1" /><stop offset="100%" style="stop-color:#16a34a;stop-opacity:1" /></linearGradient></defs><circle cx="100" cy="100" r="100" fill="url(#elfGrad)"/><circle cx="100" cy="75" r="22" fill="#fdbf60"/><path d="M 82 55 L 75 35 L 80 60 Z" fill="#fdbf60"/><path d="M 118 55 L 125 35 L 120 60 Z" fill="#fdbf60"/><path d="M 80 65 Q 100 50 120 65 Q 110 70 100 72 Q 90 70 80 65" fill="#92400e"/><circle cx="92" cy="72" r="3" fill="#1f2937"/><circle cx="108" cy="72" r="3" fill="#1f2937"/><path d="M 100 75 L 100 82" stroke="#1f2937" stroke-width="1"/><path d="M 95 85 Q 100 88 105 85" stroke="#1f2937" stroke-width="1.5" fill="none"/><path d="M 80 95 L 120 95 L 125 160 L 75 160 Z" fill="#10b981"/><ellipse cx="85" cy="110" rx="4" ry="8" fill="#059669" transform="rotate(-30 85 110)"/><ellipse cx="115" cy="110" rx="4" ry="8" fill="#059669" transform="rotate(30 115 110)"/><path d="M 70 95 Q 65 100 70 105" stroke="#d97706" stroke-width="2" fill="none"/><circle cx="68" cy="100" r="2" fill="#d97706"/></svg>