<svg viewBox="0 0 200 200" xmlns="http://www.w3.org/2000/svg"><defs><linearGradient id="engineerGrad" x1="0%" y1="0%" x2="100%" y2="100%"><stop offset="0%" style="stop-color:#f59e0b;stop-opacity:1" /><stop offset="100%" style="stop-color:#d97706;stop-opacity:1" /></linearGradient></defs><circle cx="100" cy="100" r="100" fill="url(#engineerGrad)"/><path d="M 70 55 L 130 55 L 125 70 L 75 70 Z" fill="#d97706"/><path d="M 100 50 L 105 55 L 95 55 Z" fill="#d97706"/><circle cx="100" cy="48" r="3" fill="#fbbf24"/><circle cx="100" cy="85" r="18" fill="#fdbf60"/><circle cx="90" cy="80" r="2.5" fill="#1f2937"/><circle cx="110" cy="80" r="2.5" fill="#1f2937"/><path d="M 88 90 Q 100 95 112 90" stroke="#92400e" stroke-width="1.5" fill="none"/><path d="M 70 105 L 130 105 L 125 170 L 75 170 Z" fill="#f59e0b"/><rect x="75" y="115" width="12" height="15" fill="none" stroke="#d97706" stroke-width="1"/><rect x="113" y="115" width="12" height="15" fill="none" stroke="#d97706" stroke-width="1"/><path d="M 78 120 L 78 128" stroke="#64748b" stroke-width="1.5"/><path d="M 82 120 L 82 128" stroke="#64748b" stroke-width="1.5"/><path d="M 70 110 L 45 135" stroke="#fdbf60" stroke-width="7"/><path d="M 130 110 L 155 135" stroke="#fdbf60" stroke-width="7"/><path d="M 45 135 L 40 145" stroke="#64748b" stroke-width="2"/><circle cx="40" cy="145" r="2" fill="#64748b"/><circle cx="45" cy="135" r="4" fill="#d97706"/><circle cx="155" cy="135" r="4" fill="#d97706"/></svg>