<svg viewBox="0 0 200 200" xmlns="http://www.w3.org/2000/svg"><defs><linearGradient id="explorerGrad" x1="0%" y1="0%" x2="100%" y2="100%"><stop offset="0%" style="stop-color:#92400e;stop-opacity:1" /><stop offset="100%" style="stop-color:#78350f;stop-opacity:1" /></linearGradient></defs><circle cx="100" cy="100" r="100" fill="url(#explorerGrad)"/><path d="M 70 55 L 130 55 L 125 70 L 75 70 Z" fill="#92400e"/><path d="M 100 50 L 105 55 L 95 55 Z" fill="#92400e"/><rect x="75" y="68" width="50" height="3" fill="#fbbf24"/><circle cx="100" cy="85" r="18" fill="#fdbf60"/><circle cx="90" cy="80" r="2.5" fill="#1f2937"/><circle cx="110" cy="80" r="2.5" fill="#1f2937"/><path d="M 92 90 Q 100 93 108 90" stroke="#1f2937" stroke-width="1.5" fill="none"/><path d="M 70 105 L 130 105 L 125 170 L 75 170 Z" fill="#92400e"/><rect x="75" y="115" width="10" height="12" fill="none" stroke="#fbbf24" stroke-width="1"/><rect x="115" y="115" width="10" height="12" fill="none" stroke="#fbbf24" stroke-width="1"/><circle cx="80" cy="121" r="2" fill="#fbbf24"/><rect x="117" y="117" width="6" height="8" fill="#fbbf24"/><path d="M 75 110 L 70 140" stroke="#654321" stroke-width="2"/><path d="M 125 110 L 130 140" stroke="#654321" stroke-width="2"/><circle cx="50" cy="130" r="4" fill="#654321"/><circle cx="58" cy="130" r="4" fill="#654321"/><rect x="52" y="128" width="4" height="4" fill="#654321"/></svg>