<svg viewBox="0 0 200 200" xmlns="http://www.w3.org/2000/svg"><defs><linearGradient id="guardianGrad" x1="0%" y1="0%" x2="100%" y2="100%"><stop offset="0%" style="stop-color:#ec4899;stop-opacity:1" /><stop offset="100%" style="stop-color:#be185d;stop-opacity:1" /></linearGradient></defs><circle cx="100" cy="100" r="100" fill="url(#guardianGrad)"/><circle cx="100" cy="100" r="95" fill="none" stroke="#fbbf24" stroke-width="1" opacity="0.5" stroke-dasharray="5,5"/><circle cx="100" cy="70" r="22" fill="#fef3c7"/><path d="M 75 50 L 77 55 L 82 56 L 78 60 L 79 65 L 75 62 L 71 65 L 72 60 L 68 56 L 73 55 Z" fill="#fbbf24"/><path d="M 125 50 L 127 55 L 132 56 L 128 60 L 129 65 L 125 62 L 121 65 L 122 60 L 118 56 L 123 55 Z" fill="#fbbf24"/><circle cx="90" cy="65" r="3" fill="#1f2937"/><circle cx="110" cy="65" r="3" fill="#1f2937"/><circle cx="90" cy="65" r="2" fill="#fbbf24"/><circle cx="110" cy="65" r="2" fill="#fbbf24"/><path d="M 92 78 Q 100 82 108 78" stroke="#1f2937" stroke-width="2" fill="none"/><path d="M 70 95 L 130 95 L 125 165 L 75 165 Z" fill="#ec4899"/><circle cx="100" cy="125" r="12" fill="#be185d"/><path d="M 100 120 L 103 125 L 100 130 L 97 125 Z" fill="#fbbf24"/><path d="M 85 115 L 115 115" stroke="#fbbf24" stroke-width="1" opacity="0.6"/><path d="M 85 135 L 115 135" stroke="#fbbf24" stroke-width="1" opacity="0.6"/><path d="M 75 100 Q 50 120 55 160" stroke="#be185d" stroke-width="6" fill="none"/><path d="M 125 100 Q 150 120 145 160" stroke="#be185d" stroke-width="6" fill="none"/></svg>