<svg viewBox="0 0 200 200" xmlns="http://www.w3.org/2000/svg"><defs><linearGradient id="hackerGrad" x1="0%" y1="0%" x2="100%" y2="100%"><stop offset="0%" style="stop-color:#1f2937;stop-opacity:1" /><stop offset="100%" style="stop-color:#111827;stop-opacity:1" /></linearGradient></defs><circle cx="100" cy="100" r="100" fill="url(#hackerGrad)"/><path d="M 70 60 L 130 60 L 125 95 L 75 95 Z" fill="#374151"/><path d="M 75 60 Q 100 45 125 60" fill="#1f2937"/><circle cx="100" cy="85" r="16" fill="#d4a574"/><rect x="80" y="78" width="12" height="8" fill="#000" rx="2"/><rect x="108" y="78" width="12" height="8" fill="#000" rx="2"/><circle cx="85" cy="80" r="2" fill="#00ff00"/><circle cx="113" cy="80" r="2" fill="#00ff00"/><rect x="92" y="81" width="16" height="2" fill="#000"/><path d="M 92 92 Q 100 95 108 92" stroke="#1f2937" stroke-width="1.5" fill="none"/><path d="M 70 95 L 130 95 L 125 165 L 75 165 Z" fill="#374151"/><rect x="75" y="110" width="50" height="30" fill="#1f2937" rx="2"/><rect x="78" y="113" width="4" height="4" fill="#00ff00" rx="1"/><rect x="85" y="113" width="4" height="4" fill="#00ff00" rx="1"/><rect x="92" y="113" width="4" height="4" fill="#00ff00" rx="1"/><rect x="99" y="113" width="4" height="4" fill="#00ff00" rx="1"/><rect x="106" y="113" width="4" height="4" fill="#00ff00" rx="1"/><rect x="113" y="113" width="4" height="4" fill="#00ff00" rx="1"/></svg>