<svg viewBox="0 0 200 200" xmlns="http://www.w3.org/2000/svg"><defs><linearGradient id="steelGrad" x1="0%" y1="0%" x2="100%" y2="100%"><stop offset="0%" style="stop-color:#cbd5e1;stop-opacity:1" /><stop offset="100%" style="stop-color:#475569;stop-opacity:1" /></linearGradient></defs><circle cx="100" cy="100" r="100" fill="url(#steelGrad)"/><path d="M 70 60 L 130 60 L 125 90 L 75 90 Z" fill="#94a3b8"/><path d="M 75 90 L 125 90 L 120 110 L 80 110 Z" fill="#64748b"/><circle cx="100" cy="100" r="20" fill="#fdbf60"/><circle cx="92" cy="95" r="3" fill="#1f2937"/><circle cx="108" cy="95" r="3" fill="#1f2937"/><path d="M 95 105 Q 100 108 105 105" stroke="#1f2937" stroke-width="1.5" fill="none"/><path d="M 70 110 L 130 110 L 125 160 L 75 160 Z" fill="#94a3b8"/><rect x="75" y="115" width="50" height="8" fill="#64748b"/><path d="M 50 120 L 60 120 L 58 160 L 52 160 Z" fill="#dc2626"/><path d="M 55 130 L 57 145" stroke="#fbbf24" stroke-width="1.5"/><path d="M 150 120 L 145 160" stroke="#94a3b8" stroke-width="3"/><path d="M 145 160 L 140 165 L 150 165 Z" fill="#dc2626"/></svg>