<svg viewBox="0 0 200 200" xmlns="http://www.w3.org/2000/svg"><defs><linearGradient id="mageGrad" x1="0%" y1="0%" x2="100%" y2="100%"><stop offset="0%" style="stop-color:#a78bfa;stop-opacity:1" /><stop offset="100%" style="stop-color:#6d28d9;stop-opacity:1" /></linearGradient></defs><circle cx="100" cy="100" r="100" fill="url(#mageGrad)"/><path d="M 70 50 L 130 50 L 125 75 L 75 75 Z" fill="#4c1d95"/><path d="M 100 40 L 105 50 L 95 50 Z" fill="#4c1d95"/><path d="M 100 55 L 103 62 L 110 62 L 104 67 L 107 74 L 100 69 L 93 74 L 96 67 L 90 62 L 97 62 Z" fill="#fbbf24"/><circle cx="100" cy="90" r="18" fill="#fef3c7"/><circle cx="92" cy="85" r="3" fill="#1f2937"/><circle cx="108" cy="85" r="3" fill="#1f2937"/><path d="M 90 95 Q 100 100 110 95" stroke="#92400e" stroke-width="2" fill="none"/><path d="M 75 105 L 125 105 L 120 170 L 80 170 Z" fill="#6d28d9"/><circle cx="100" cy="140" r="8" fill="#fbbf24"/><circle cx="100" cy="140" r="6" fill="#fcd34d" opacity="0.7"/><path d="M 130 70 L 135 160" stroke="#92400e" stroke-width="3"/><path d="M 135 160 L 140 165 L 130 165 Z" fill="#fbbf24"/></svg>