<svg viewBox="0 0 200 200" xmlns="http://www.w3.org/2000/svg"><defs><linearGradient id="mysticGrad" x1="0%" y1="0%" x2="100%" y2="100%"><stop offset="0%" style="stop-color:#a855f7;stop-opacity:1" /><stop offset="100%" style="stop-color:#7c3aed;stop-opacity:1" /></linearGradient></defs><circle cx="100" cy="100" r="100" fill="url(#mysticGrad)"/><circle cx="100" cy="70" r="24" fill="#e9d5ff"/><path d="M 75 50 L 80 40 L 85 50 Z" fill="#a855f7"/><path d="M 125 50 L 120 40 L 115 50 Z" fill="#a855f7"/><circle cx="90" cy="65" r="3" fill="#1f2937"/><circle cx="110" cy="65" r="3" fill="#1f2937"/><circle cx="90" cy="65" r="1.5" fill="#fbbf24"/><circle cx="110" cy="65" r="1.5" fill="#fbbf24"/><path d="M 92 78 Q 100 82 108 78" stroke="#1f2937" stroke-width="1.5" fill="none"/><path d="M 70 95 L 130 95 L 125 170 L 75 170 Z" fill="#7c3aed"/><circle cx="85" cy="120" r="5" fill="#a855f7" opacity="0.7"/><circle cx="115" cy="120" r="5" fill="#a855f7" opacity="0.7"/><circle cx="100" cy="140" r="8" fill="#a855f7" opacity="0.7"/><path d="M 100 110 L 100 160" stroke="#e9d5ff" stroke-width="1" opacity="0.5"/><path d="M 75 140 L 125 140" stroke="#e9d5ff" stroke-width="1" opacity="0.5"/><path d="M 60 100 Q 50 120 60 140" stroke="#a855f7" stroke-width="3" fill="none"/><path d="M 140 100 Q 150 120 140 140" stroke="#a855f7" stroke-width="3" fill="none"/></svg>