<svg viewBox="0 0 200 200" xmlns="http://www.w3.org/2000/svg"><defs><linearGradient id="necroGrad" x1="0%" y1="0%" x2="100%" y2="100%"><stop offset="0%" style="stop-color:#7c2d12;stop-opacity:1" /><stop offset="100%" style="stop-color:#1f2937;stop-opacity:1" /></linearGradient></defs><circle cx="100" cy="100" r="100" fill="url(#necroGrad)"/><circle cx="100" cy="75" r="22" fill="#d4a574"/><circle cx="90" cy="70" r="5" fill="#000"/><circle cx="110" cy="70" r="5" fill="#000"/><circle cx="90" cy="70" r="3" fill="#dc2626"/><circle cx="110" cy="70" r="3" fill="#dc2626"/><path d="M 100 78 L 100 82" stroke="#000" stroke-width="2"/><path d="M 85 85 L 115 85" stroke="#000" stroke-width="1"/><path d="M 87 85 L 87 88 M 92 85 L 92 88 M 97 85 L 97 88 M 102 85 L 102 88 M 107 85 L 107 88 M 112 85 L 112 88" stroke="#000" stroke-width="0.5"/><path d="M 75 95 L 125 95 L 130 170 L 70 170 Z" fill="#1f2937"/><circle cx="85" cy="120" r="6" fill="#dc2626" opacity="0.6"/><circle cx="115" cy="120" r="6" fill="#dc2626" opacity="0.6"/><path d="M 140 90 L 145 170" stroke="#654321" stroke-width="3"/><circle cx="145" cy="85" r="8" fill="#000"/><circle cx="145" cy="85" r="5" fill="#dc2626"/></svg>