<svg viewBox="0 0 200 200" xmlns="http://www.w3.org/2000/svg"><defs><linearGradient id="paladinGrad" x1="0%" y1="0%" x2="100%" y2="100%"><stop offset="0%" style="stop-color:#fbbf24;stop-opacity:1" /><stop offset="100%" style="stop-color:#f59e0b;stop-opacity:1" /></linearGradient></defs><circle cx="100" cy="100" r="100" fill="url(#paladinGrad)"/><circle cx="100" cy="50" r="35" fill="none" stroke="#fcd34d" stroke-width="3" opacity="0.8"/><circle cx="100" cy="75" r="20" fill="#fef3c7"/><path d="M 82 65 Q 100 50 118 65 Q 105 70 100 72 Q 95 70 82 65" fill="#92400e"/><circle cx="92" cy="72" r="2.5" fill="#1f2937"/><circle cx="108" cy="72" r="2.5" fill="#1f2937"/><path d="M 100 55 L 100 65 M 95 60 L 105 60" stroke="#fbbf24" stroke-width="2"/><path d="M 75 95 L 125 95 L 120 160 L 80 160 Z" fill="#fbbf24"/><rect x="80" y="105" width="40" height="8" fill="#f59e0b"/><path d="M 100 110 L 100 125 M 92 117.5 L 108 117.5" stroke="#dc2626" stroke-width="2"/><path d="M 50 110 L 60 110 L 58 160 L 52 160 Z" fill="#fbbf24"/><path d="M 55 120 L 55 150" stroke="#dc2626" stroke-width="2"/><path d="M 150 110 L 145 160" stroke="#cbd5e1" stroke-width="3"/><path d="M 145 160 L 140 165 L 150 165 Z" fill="#fbbf24"/></svg>