<svg viewBox="0 0 200 200" xmlns="http://www.w3.org/2000/svg"><defs><linearGradient id="pilotGrad" x1="0%" y1="0%" x2="100%" y2="100%"><stop offset="0%" style="stop-color:#0ea5e9;stop-opacity:1" /><stop offset="100%" style="stop-color:#0369a1;stop-opacity:1" /></linearGradient></defs><circle cx="100" cy="100" r="100" fill="url(#pilotGrad)"/><circle cx="100" cy="70" r="26" fill="#e0f2fe" opacity="0.7" stroke="#0369a1" stroke-width="2"/><ellipse cx="100" cy="70" rx="20" ry="18" fill="#0369a1" opacity="0.3"/><ellipse cx="90" cy="60" rx="6" ry="8" fill="#fff" opacity="0.5"/><circle cx="100" cy="75" r="16" fill="#fdbf60"/><circle cx="92" cy="70" r="2.5" fill="#1f2937"/><circle cx="108" cy="70" r="2.5" fill="#1f2937"/><path d="M 93 80 Q 100 83 107 80" stroke="#1f2937" stroke-width="2" fill="none"/><path d="M 70 100 L 130 100 L 125 170 L 75 170 Z" fill="#0ea5e9"/><rect x="75" y="110" width="50" height="8" fill="#0369a1"/><circle cx="85" cy="115" r="2" fill="#fbbf24"/><circle cx="100" cy="115" r="2" fill="#fbbf24"/><circle cx="115" cy="115" r="2" fill="#fbbf24"/><path d="M 70 105 L 45 125" stroke="#0ea5e9" stroke-width="7"/><path d="M 130 105 L 155 125" stroke="#0ea5e9" stroke-width="7"/><circle cx="45" cy="125" r="4" fill="#1f2937"/><circle cx="155" cy="125" r="4" fill="#1f2937"/><rect x="85" y="170" width="8" height="20" fill="#1f2937"/><rect x="107" y="170" width="8" height="20" fill="#1f2937"/></svg>