<svg viewBox="0 0 200 200" xmlns="http://www.w3.org/2000/svg"><defs><linearGradient id="robotGrad" x1="0%" y1="0%" x2="100%" y2="100%"><stop offset="0%" style="stop-color:#f59e0b;stop-opacity:1" /><stop offset="100%" style="stop-color:#d97706;stop-opacity:1" /></linearGradient></defs><circle cx="100" cy="100" r="100" fill="url(#robotGrad)"/><rect x="70" y="50" width="60" height="50" fill="#fbbf24" rx="5"/><rect x="95" y="30" width="10" height="20" fill="#d97706"/><circle cx="100" cy="30" r="3" fill="#dc2626"/><rect x="80" y="65" width="10" height="10" fill="#000" rx="2"/><rect x="110" y="65" width="10" height="10" fill="#000" rx="2"/><circle cx="85" cy="70" r="2" fill="#00ff00"/><circle cx="115" cy="70" r="2" fill="#00ff00"/><rect x="85" y="82" width="30" height="3" fill="#d97706"/><rect x="65" y="105" width="70" height="65" fill="#fbbf24" rx="5"/><rect x="75" y="115" width="50" height="40" fill="#f59e0b" rx="3"/><circle cx="85" cy="125" r="3" fill="#dc2626"/><circle cx="100" cy="125" r="3" fill="#dc2626"/><circle cx="115" cy="125" r="3" fill="#dc2626"/><circle cx="85" cy="140" r="3" fill="#0ea5e9"/><circle cx="100" cy="140" r="3" fill="#0ea5e9"/><circle cx="115" cy="140" r="3" fill="#0ea5e9"/><rect x="45" y="120" width="20" height="10" fill="#fbbf24" rx="5"/><rect x="135" y="120" width="20" height="10" fill="#fbbf24" rx="5"/><rect x="80" y="170" width="10" height="20" fill="#d97706"/><rect x="110" y="170" width="10" height="20" fill="#d97706"/></svg>