<svg viewBox="0 0 200 200" xmlns="http://www.w3.org/2000/svg"><defs><linearGradient id="rogueGrad" x1="0%" y1="0%" x2="100%" y2="100%"><stop offset="0%" style="stop-color:#6b7280;stop-opacity:1" /><stop offset="100%" style="stop-color:#1f2937;stop-opacity:1" /></linearGradient></defs><circle cx="100" cy="100" r="100" fill="url(#rogueGrad)"/><path d="M 75 65 L 125 65 L 120 90 L 80 90 Z" fill="#1f2937"/><circle cx="90" cy="75" r="4" fill="#fbbf24"/><circle cx="110" cy="75" r="4" fill="#fbbf24"/><circle cx="91" cy="76" r="1.5" fill="#000"/><circle cx="111" cy="76" r="1.5" fill="#000"/><circle cx="100" cy="100" r="18" fill="#d4a574"/><path d="M 95 105 Q 100 108 105 105" stroke="#1f2937" stroke-width="1.5" fill="none"/><path d="M 75 90 L 125 90 L 130 170 L 70 170 Z" fill="#374151"/><path d="M 130 100 L 140 140" stroke="#94a3b8" stroke-width="2.5"/><path d="M 140 140 L 138 145 L 142 145 Z" fill="#dc2626"/><path d="M 70 100 L 60 140" stroke="#94a3b8" stroke-width="2.5"/><path d="M 60 140 L 58 145 L 62 145 Z" fill="#dc2626"/><path d="M 85 170 L 83 190" stroke="#1f2937" stroke-width="5"/><path d="M 115 170 L 117 190" stroke="#1f2937" stroke-width="5"/></svg>