<svg viewBox="0 0 200 200" xmlns="http://www.w3.org/2000/svg"><defs><linearGradient id="scientistGrad" x1="0%" y1="0%" x2="100%" y2="100%"><stop offset="0%" style="stop-color:#10b981;stop-opacity:1" /><stop offset="100%" style="stop-color:#047857;stop-opacity:1" /></linearGradient></defs><circle cx="100" cy="100" r="100" fill="url(#scientistGrad)"/><path d="M 75 60 Q 100 45 125 60 Q 110 65 100 67 Q 90 65 75 60" fill="#92400e"/><path d="M 85 55 L 82 45 L 87 55" fill="#92400e"/><path d="M 100 50 L 100 38 L 105 50" fill="#92400e"/><path d="M 115 55 L 118 45 L 113 55" fill="#92400e"/><circle cx="100" cy="80" r="18" fill="#fdbf60"/><rect x="80" y="75" width="12" height="10" fill="#000" rx="2"/><rect x="108" y="75" width="12" height="10" fill="#000" rx="2"/><circle cx="85" cy="78" r="2" fill="#fff"/><circle cx="113" cy="78" r="2" fill="#fff"/><rect x="92" y="78" width="16" height="2" fill="#000"/><path d="M 92 90 Q 100 93 108 90" stroke="#1f2937" stroke-width="1.5" fill="none"/><path d="M 70 100 L 130 100 L 125 170 L 75 170 Z" fill="#e0f2fe"/><circle cx="100" cy="110" r="2" fill="#047857"/><circle cx="100" cy="125" r="2" fill="#047857"/><circle cx="100" cy="140" r="2" fill="#047857"/><rect x="78" y="120" width="12" height="15" fill="none" stroke="#047857" stroke-width="1"/><rect x="110" y="120" width="12" height="15" fill="none" stroke="#047857" stroke-width="1"/><rect x="112" y="122" width="3" height="10" fill="#dc2626"/><circle cx="113.5" cy="121" r="2" fill="#dc2626"/></svg>