<svg viewBox="0 0 200 200" xmlns="http://www.w3.org/2000/svg"><defs><linearGradient id="spacemanGrad" x1="0%" y1="0%" x2="100%" y2="100%"><stop offset="0%" style="stop-color:#dc2626;stop-opacity:1" /><stop offset="100%" style="stop-color:#991b1b;stop-opacity:1" /></linearGradient></defs><circle cx="100" cy="100" r="100" fill="url(#spacemanGrad)"/><circle cx="100" cy="65" r="30" fill="#e0e7ff" opacity="0.7" stroke="#4f46e5" stroke-width="2"/><ellipse cx="100" cy="65" rx="24" ry="22" fill="#4f46e5" opacity="0.2"/><circle cx="100" cy="70" r="18" fill="#fdbf60"/><circle cx="90" cy="65" r="3" fill="#1f2937"/><circle cx="110" cy="65" r="3" fill="#1f2937"/><path d="M 92 78 L 108 78" stroke="#1f2937" stroke-width="2"/><path d="M 65 100 L 135 100 L 130 175 L 70 175 Z" fill="#dc2626"/><rect x="75" y="110" width="50" height="45" fill="#991b1b" rx="3"/><rect x="80" y="115" width="40" height="3" fill="#4f46e5"/><rect x="80" y="125" width="40" height="3" fill="#4f46e5"/><rect x="80" y="135" width="40" height="3" fill="#4f46e5"/><rect x="80" y="145" width="40" height="3" fill="#4f46e5"/><path d="M 65 105 L 40 135" stroke="#dc2626" stroke-width="8"/><path d="M 135 105 L 160 135" stroke="#dc2626" stroke-width="8"/><rect x="155" y="130" width="4" height="30" fill="#64748b"/><rect x="155" y="160" width="8" height="4" fill="#dc2626"/></svg>