<svg viewBox="0 0 200 200" xmlns="http://www.w3.org/2000/svg">
  <defs>
    <linearGradient id="purpleGrad" x1="0%" y1="0%" x2="100%" y2="100%">
      <stop offset="0%" style="stop-color:#a78bfa;stop-opacity:1" />
      <stop offset="100%" style="stop-color:#7c3aed;stop-opacity:1" />
    </linearGradient>
  </defs>
  <circle cx="100" cy="100" r="100" fill="url(#purpleGrad)"/>
  <path d="M 100 40 L 110 70 L 140 70 L 115 90 L 125 120 L 100 100 L 75 120 L 85 90 L 60 70 L 90 70 Z" fill="#fbbf24"/>
  <circle cx="100" cy="80" r="25" fill="#fef3c7"/>
  <circle cx="95" cy="75" r="4" fill="#1f2937"/>
  <circle cx="105" cy="75" r="4" fill="#1f2937"/>
  <path d="M 100 85 Q 98 88 100 90 Q 102 88 100 85" fill="#1f2937"/>
  <path d="M 85 95 Q 100 105 115 95" stroke="#1f2937" stroke-width="2" fill="none"/>
  <path d="M 70 130 L 60 180 L 75 170 L 80 190 L 95 175 L 100 200 L 105 175 L 120 190 L 125 170 L 140 180 L 130 130 Z" fill="#4f46e5"/>
  <path d="M 70 130 L 65 145 L 75 140 Z" fill="#6366f1"/>
  <path d="M 130 130 L 135 145 L 125 140 Z" fill="#6366f1"/>
</svg>